<svg width="38" height="24" viewBox="0 0 38 24" fill="none" xmlns="http://www.w3.org/2000/svg">
<path d="M37.4325 11.6044C36.7919 10.615 31.1519 1.83 26.5269 0.40875C25.9256 0.220625 25.255 0.125 24.5325 0.125C23.0006 0.125 21.21 0.553125 19.21 1.39687L19.0006 1.47812H18.9994L18.79 1.39687C16.7906 0.553125 15 0.125 13.4675 0.125C12.745 0.125 12.0744 0.220625 11.4731 0.409375C6.84813 1.83062 1.2075 10.6156 0.5675 11.605C0.0924999 12.3387 0.173125 12.6825 0.658125 13.3562C1.22938 14.1487 1.71312 14.9994 2.1875 15.9263C4.09625 19.6519 6.25875 23.875 18.9994 23.875H19.0006C31.7412 23.875 33.9037 19.6519 35.8119 15.9256C36.2875 14.9987 36.7706 14.1475 37.3419 13.3556C37.8262 12.6819 37.9075 12.3381 37.4325 11.6044ZM19.0006 22.3906C19 22.3906 19 22.3906 19.0006 22.3906H18.9994C5.61062 22.3906 4.95687 17.7856 2.745 13.8919C3.64375 13.8 4.5575 13.4981 5.52188 13.08C9.06437 15.9756 13.1694 14.5481 18.9987 14.5481H19.0006C24.83 14.5481 28.935 15.9756 32.4775 13.08C33.4419 13.4981 34.3556 13.7994 35.2544 13.8919C33.0431 17.7856 32.3894 22.3906 19.0006 22.3906ZM9.03938 11.3819C11.6663 10.1187 14.8631 8.83562 19 8.83562H19.0006C23.1369 8.83562 26.3337 10.1187 28.9613 11.3819H9.03938ZM35.8044 12.4419C32.2519 12.4419 27.55 7.35063 19.0006 7.35063H18.9994C10.45 7.35063 5.74813 12.4419 2.19562 12.4419C2.0525 12.4419 1.91 12.4338 1.76938 12.4163C1.76938 12.4163 7.62875 3.13875 11.8875 1.83C12.3469 1.68625 12.8725 1.60938 13.4669 1.60938C14.75 1.60938 16.35 1.96813 18.2694 2.78063C18.5087 2.8725 18.7537 2.97125 18.9987 3.0775H19C19.245 2.97125 19.49 2.8725 19.7294 2.78063C21.6481 1.96813 23.2488 1.60938 24.5319 1.60938C25.1263 1.60938 25.6519 1.68625 26.1112 1.83C30.37 3.13937 36.2294 12.4163 36.2294 12.4163C36.0884 12.4336 35.9464 12.4422 35.8044 12.4419Z" fill="#161717"/>
</svg>
